<?xml version="1.0" encoding="UTF-8"?>
<svg id="Layer_2" data-name="Layer 2" xmlns="http://www.w3.org/2000/svg" xmlns:xlink="http://www.w3.org/1999/xlink" viewBox="0 0 421.17 526.06">
  <defs>
    <style>
      .cls-1 {
        fill: url(#linear-gradient);
      }

      .cls-1, .cls-2, .cls-3, .cls-4, .cls-5, .cls-6, .cls-7, .cls-8, .cls-9, .cls-10, .cls-11, .cls-12, .cls-13, .cls-14, .cls-15 {
        stroke-width: 0px;
      }

      .cls-2 {
        fill: url(#linear-gradient-4);
      }

      .cls-3 {
        fill: url(#linear-gradient-2);
      }

      .cls-4 {
        fill: url(#linear-gradient-3);
      }

      .cls-5 {
        fill: url(#linear-gradient-7);
      }

      .cls-6 {
        fill: url(#linear-gradient-5);
      }

      .cls-7 {
        fill: url(#linear-gradient-6);
      }

      .cls-8 {
        fill: #293d66;
      }

      .cls-9 {
        fill: #5b6972;
      }

      .cls-10 {
        fill: #192a49;
      }

      .cls-11 {
        fill: #434f5b;
      }

      .cls-12 {
        fill: #bc1328;
      }

      .cls-13 {
        fill: #69f8ff;
      }

      .cls-14 {
        fill: #e3f0ff;
      }

      .cls-15 {
        fill: #eb1e2d;
      }
    </style>
    <linearGradient id="linear-gradient" x1="244.86" y1="365.02" x2="224.59" y2="350.86" gradientTransform="translate(-5.59 -48.1) rotate(13.35) scale(1.08 1)" gradientUnits="userSpaceOnUse">
      <stop offset="0" stop-color="#e3f0ff"/>
      <stop offset="1" stop-color="#a4c0dd"/>
    </linearGradient>
    <linearGradient id="linear-gradient-2" x1="233.39" y1="318.25" x2="233.39" y2="501.61" gradientTransform="matrix(1,0,0,1,0,0)" xlink:href="#linear-gradient"/>
    <linearGradient id="linear-gradient-3" x1="233.39" y1="350.74" x2="233.39" y2="740.03" gradientTransform="matrix(1,0,0,1,0,0)" xlink:href="#linear-gradient"/>
    <linearGradient id="linear-gradient-4" x1="240.58" y1="316.35" x2="228.7" y2="255.04" gradientTransform="matrix(1,0,0,1,0,0)" xlink:href="#linear-gradient"/>
    <linearGradient id="linear-gradient-5" x1="220.87" y1="523.16" x2="173.47" y2="490.08" gradientTransform="matrix(1,0,0,1,0,0)" xlink:href="#linear-gradient"/>
    <linearGradient id="linear-gradient-6" x1="529.01" y1="523.16" x2="481.61" y2="490.08" gradientTransform="translate(774.92) rotate(-180) scale(1 -1)" xlink:href="#linear-gradient"/>
    <linearGradient id="linear-gradient-7" x1="341.5" y1="302.29" x2="307.38" y2="278.48" gradientTransform="matrix(1,0,0,1,0,0)" xlink:href="#linear-gradient"/>
  </defs>
  <g id="Layer_1-2" data-name="Layer 1">
    <g>
      <g>
        <g>
          <g>
            <path class="cls-9" d="m129.16,414.57c-5.57.56-7.51-8.97-8.88-11.82-1.37-2.85-5.97,9.68-8.77,16.34-1.37,3.26-4.81,3.15-7.64,1.14-2.91-2.06-5.17-6.13-3.84-10.55,0,0-2.79,1.99-6.1-.07-3.32-2.04-2.4-9.89-2.4-9.89,0,0-3.64.39-4.09-3.99-.44-4.4,6.16-16.82,6.16-16.82l26.37,9.78,15.1,5.6s-.33,19.72-5.9,20.28Z"/>
            <path class="cls-11" d="m90.01,399.51s1.14-5.12,3.04-7.12c1.9-2.01-.8,2.21-1.53,7.33,0,0-.56.08-1.51-.2Z"/>
            <path class="cls-11" d="m100.02,409.68c.87-3.54,3.35-8.82,3.65-9.53.31-.72-3.57,2.43-5.39,10.26,0,0,.58-.1,1.02-.28.44-.18.72-.44.72-.44Z"/>
            <path class="cls-11" d="m129.16,414.57c-5.57.56-7.51-8.97-8.88-11.82-1.37-2.85-5.97,9.68-8.77,16.34-1.37,3.26-4.81,3.15-7.64,1.14,3.27.97,4.73.81,6.8-5,1.53-4.35,6.75-19.26,9.3-26.54l15.1,5.6s-.33,19.72-5.9,20.28Z"/>
          </g>
          <path class="cls-14" d="m184.71,318.12c-2.27,6.6-6.37,14.74-13.74,22.07-15.89,15.79-36.56,54.41-36.56,54.41,0,0-2.85,1.19-7.68,1.74-3.41.38-7.81.46-12.88-.43-12.25-2.16-20.9-16.69-20.9-16.69,0,0,7.33-17.28,28.74-36.74,31.56-28.69,65.84-37.57,65.84-37.57,0,0-.2,5.59-2.82,13.22Z"/>
          <path class="cls-1" d="m185.36,317.81c-2.27,6.6-6.37,14.74-13.74,22.07-15.89,15.79-36.56,54.41-36.56,54.41,0,0-2.85,1.19-7.68,1.74,0,0,.37-12.24,21.51-43.03,10.86-15.83,28.22-29.28,36.47-35.19Z"/>
        </g>
        <g>
          <path class="cls-3" d="m298.2,334.31c-3.55-22.9-7.06-36.44-7.06-36.44,0,0-2.78-1.93-9.53-4.1h-.02c-8.67-2.79-23.91-5.98-48.21-5.98s-39.53,3.19-48.21,5.98h-.02c-6.75,2.17-9.53,4.1-9.53,4.1,0,0-3.51,13.53-7.06,36.44-3.6,23.28-7.24,56.25-7.24,94.52,0,0,24.02,30.46,52.39,40.77h39.33c28.37-10.31,52.39-40.77,52.39-40.77,0-38.27-3.64-71.24-7.24-94.52Z"/>
          <path class="cls-11" d="m185.18,293.77s-1.11,22.37-4.04,31.74c-2.93,9.37-12.57,8.8-12.57,8.8,3.55-22.9,7.06-36.44,7.06-36.44,0,0,2.78-1.93,9.53-4.1h.02Z"/>
          <path class="cls-11" d="m281.6,293.77s1.11,22.37,4.04,31.74c2.93,9.37,12.57,8.8,12.57,8.8-3.55-22.9-7.06-36.44-7.06-36.44,0,0-2.78-1.93-9.53-4.1h-.02Z"/>
          <path class="cls-4" d="m281.6,375.41c-4.16-58.1-16.28-85.38-16.28-85.38l-31.93,16.5-31.93-16.5s-12.11,27.28-16.28,85.38c-4.16,58.1,14.47,73.8,48.21,73.8s52.37-15.7,48.21-73.8Z"/>
          <path class="cls-11" d="m233.39,287.79c-17.11,0-31.93,2.24-31.93,2.24,0,33.95,14.82,31.96,31.93,31.96s31.93,1.98,31.93-31.96c0,0-14.82-2.24-31.93-2.24Z"/>
          <path class="cls-12" d="m302.51,368.67l-.28-2.86c-9.43,1.81-16.63,8.26-24.31,31.3-7.44,22.3-16.59,28.07-44.53,28.07s-37.09-5.77-44.53-28.07c-7.69-23.04-14.88-29.49-24.31-31.3l-.28,2.86h-.01c8.52,1.82,14.84,8.03,21.94,29.33,7.76,23.26,18.35,29.99,47.19,29.99s39.43-6.73,47.19-29.99c7.1-21.3,13.42-27.51,21.94-29.33h-.01Z"/>
        </g>
        <g>
          <g>
            <path class="cls-15" d="m389.97,204.57l23.29-11.39c5.21-11.8,7.3-24.77,7.79-36.8h0c.95-23.7-4.33-43.7-4.33-43.7l-28.79-19.79,1.13,62.25.9,49.43Z"/>
            <path class="cls-12" d="m389.97,204.57l23.29-11.39c5.21-11.8,7.3-24.77,7.79-36.8h0s-31.98-1.24-31.98-1.24l.9,49.43Z"/>
          </g>
          <g>
            <path class="cls-15" d="m56.18,262.55l-25.77-2.87c-8.88-9.35-15.23-20.86-19.74-32.02h0C1.77,205.68,0,185.07,0,185.07l20.43-28.34,19.93,58.98,15.82,46.84Z"/>
            <path class="cls-12" d="m56.18,262.55l-25.77-2.87c-8.88-9.35-15.23-20.86-19.74-32.02h0s29.7-11.95,29.7-11.95l15.82,46.84Z"/>
          </g>
          <path class="cls-14" d="m360.89,35.83c-21.7-27.04-90.11-45.54-177.44-30.37C96.12,20.63,37.96,61.11,26.65,93.89c-11.41,33.05-8.54,81.99,7.57,122.97,22.24,56.58,42.56,76.46,64.59,86.3,29.12,13.01,91.28,12.5,137.14,4.53,45.86-7.97,104.55-28.44,127.58-50.51,17.42-16.69,29.85-42.26,31.7-103.03,1.34-44.02-12.45-91.05-34.34-118.32Z"/>
          <path class="cls-10" d="m335.08,65.2c-14.13-15.62-73.88-22.84-143.13-10.81-69.25,12.03-123.07,38.97-131.1,58.44-8.03,19.47-2.84,68.5,13,110.46,15.85,41.95,35.78,59.9,57.29,64.24,24.48,4.94,64.73,3.02,100.74-3.23,36.01-6.25,74.29-17.66,95.93-30.93,18.71-11.48,31.5-34.96,32.27-79.8.77-44.84-10.88-92.75-25.01-108.37Z"/>
          <path class="cls-8" d="m334.78,75.22c-13.82-14.78-72.6-21.29-140.85-9.44-68.25,11.85-121.39,37.81-129.41,56.38-8.02,18.57-3.2,65.2,12.15,105.02,15.35,39.82,34.87,56.78,56.02,60.79,24.07,4.56,63.71,2.49,99.2-3.67,35.49-6.16,73.25-17.24,94.62-30,18.49-11.03,31.22-33.45,32.24-76.12s-10.16-88.19-23.98-102.97Z"/>
          <path class="cls-2" d="m365.39,163.01c.08,3.58.11,7.15.05,10.71-.8,46.46-14.05,70.79-33.44,82.68-22.41,13.75-62.08,25.57-99.39,32.05-37.31,6.48-79.02,8.47-104.38,3.35-22.29-4.5-42.94-23.09-59.36-66.56-1.26-3.33-2.44-6.7-3.57-10.1-14.79-6.11-27.9-13.64-38.85-22.46,2.1,8.24,4.69,16.35,7.77,24.17,22.24,56.58,42.56,76.46,64.59,86.3,29.12,13.01,91.28,12.5,137.14,4.53,45.86-7.97,104.55-28.44,127.58-50.51,17.42-16.69,29.85-42.26,31.7-103.03.26-8.4-.04-16.91-.84-25.38-7.34,11.99-17.14,23.51-29,34.24Z"/>
          <path class="cls-15" d="m273.12,1.35l-8.89,14.93c-2.85,4.78-7.67,8.04-13.06,8.97-1.14.2-2.33.3-3.52.28-9.69-.15-30.34.36-59.76,5.47-29.43,5.11-49.04,11.59-58.11,15-1.12.42-2.26.73-3.41.92-5.39.94-11.03-.5-15.32-4.04l-13.4-11.06c2.48-1.17,5.01-2.33,7.6-3.45l10.57,8.72c3.15,2.6,7.49,3.32,11.32,1.89,9.31-3.5,29.43-10.15,59.46-15.37,30.04-5.22,51.21-5.74,61.16-5.58,4.09.06,7.93-2.08,10.02-5.59l7.01-11.78c2.82.19,5.59.42,8.32.69Z"/>
        </g>
        <g>
          <g>
            <path class="cls-14" d="m218.42,526.06h-65.2c-.65,0-1.12-1.88-1.38-4.61-.52-5.75,0-15.25,2.05-18.58,3.04-4.92,15.24-6.56,15.24-6.56,0,0-1.44-7.75-3.09-18.62-.27-1.84-.56-3.76-.84-5.74-1.1-7.69-2.18-16.39-2.93-24.79-.57-6.48-.94-12.78-.94-18.32l52.4,40.77c0,5.97.48,12.88,1.12,19.76.1,1.06.21,2.12.32,3.18,1.2,11.68,2.78,22.88,3.34,28.91.26,2.91.29,4.61-.08,4.61Z"/>
            <path class="cls-6" d="m218.42,526.06h-63c-1.02-2.16-.4-4.61-.4-4.61h42.33c1.65,0,.9-16.4-2.7-19.21-3.6-2.81-12.46-5.93-12.46-5.93l10.5-.94-1.5-36.08,22.52,10.31c0,21.91,6.38,56.46,4.69,56.46Z"/>
            <path class="cls-11" d="m213.73,469.6c-26.15-2.11-43.58-15.12-51.46-22.44-.57-6.48-.94-12.78-.94-18.32l52.39,40.77Z"/>
            <path class="cls-12" d="m215.17,492.54c-9.64-4.27-17.97-5.01-22.64-5.44-2.44-.22-3.77-.34-4.6-.82-1.24-.72-2.34-2.91-4.19-6.75-1.34-2.79-3.18-6.62-4.32-7.33-2.35-1.45-8.52-1.34-10.76-.44-.71.28-1.78,2.8-2.6,5.91-.27-1.84-.56-3.76-.84-5.74.68-1.35,1.51-2.41,2.48-2.79,2.89-1.15,9.92-1.32,13.11.65,1.7,1.05,3.23,4.05,5.37,8.49.97,2.03,2.46,5.12,3.09,5.56.36.18,2.04.33,3.5.46,4.61.4,12.66,1.12,22.1,5.06.1,1.06.21,2.12.32,3.18Z"/>
          </g>
          <path class="cls-12" d="m218.51,521.45c.26,2.91.29,4.61-.08,4.61h-65.2c-.65,0-1.12-1.88-1.38-4.61h66.66Z"/>
        </g>
        <g>
          <g>
            <path class="cls-14" d="m314.93,521.45c-.25,2.73-.73,4.61-1.38,4.61h-65.2c-.37,0-.35-1.71-.08-4.61.55-6.04,2.14-17.23,3.34-28.91.11-1.06.22-2.12.32-3.18.65-6.89,1.12-13.79,1.12-19.76l52.4-40.77c0,5.54-.37,11.85-.94,18.32-.75,8.4-1.84,17.09-2.93,24.79-.28,1.99-.57,3.91-.84,5.74-1.65,10.87-3.09,18.62-3.09,18.62,0,0,12.2,1.64,15.24,6.56,2.06,3.34,2.57,12.83,2.05,18.58Z"/>
            <path class="cls-7" d="m248.36,526.06h63c1.02-2.16.4-4.61.4-4.61h-42.33c-1.65,0-.9-16.4,2.7-19.21s12.46-5.93,12.46-5.93l-10.5-.94,1.5-36.08-22.52,10.31c0,21.91-6.38,56.46-4.69,56.46Z"/>
            <path class="cls-11" d="m253.05,469.6c26.15-2.11,43.58-15.12,51.46-22.44.57-6.48.94-12.78.94-18.32l-52.39,40.77Z"/>
            <path class="cls-12" d="m251.61,492.54c9.64-4.27,17.97-5.01,22.64-5.44,2.44-.22,3.77-.34,4.6-.82,1.24-.72,2.34-2.91,4.19-6.75,1.34-2.79,3.18-6.62,4.32-7.33,2.35-1.45,8.52-1.34,10.76-.44.71.28,1.78,2.8,2.6,5.91.27-1.84.56-3.76.84-5.74-.68-1.35-1.51-2.41-2.48-2.79-2.89-1.15-9.92-1.32-13.11.65-1.7,1.05-3.23,4.05-5.37,8.49-.97,2.03-2.46,5.12-3.09,5.56-.36.18-2.04.33-3.5.46-4.61.4-12.66,1.12-22.1,5.06-.1,1.06-.21,2.12-.32,3.18Z"/>
          </g>
          <path class="cls-12" d="m314.93,521.45c-.25,2.73-.73,4.61-1.38,4.61h-65.2c-.37,0-.35-1.71-.08-4.61h66.66Z"/>
        </g>
        <g>
          <path class="cls-14" d="m392.37,303.56s-39.79,33.27-95.41,23.03c0,0-5.1-7.85-6.07-19.12-.26-2.99-.23-6.22.26-9.61,0,0,42.27-2.77,62.19-27.84,0,0,2.4,2.47,6.16,6.11,4,3.85,9.56,9.02,15.41,13.89,12.49,10.41,17.47,13.53,17.47,13.53Z"/>
          <path class="cls-5" d="m359.49,276.14c-7.5,8.46-18.65,18.54-32.15,23.15-19.22,6.57-31.53,7.92-36.45,8.19-.26-2.99-.23-6.22.26-9.61,0,0,42.27-2.77,62.19-27.84,0,0,2.4,2.47,6.16,6.11Z"/>
          <g>
            <path class="cls-9" d="m353,268.42s-2.81-26.32,5.94-29.29c8.75-2.97,12.18,18.43,12.18,18.43,0,0,17.02-20.3,24.68-21.71s6.87,9.61,1.09,16.28c-5.78,6.68-9.89,14.14-1.61,8.2s13-9.33,17.69-8.55c4.69.78.48,10-5.92,16.63-6.4,6.64-6.72,9.29-5,8.98s9.06-6.56,12.96-5.31.78,10.31-8.28,18.43c-9.06,8.12-14.37,13.04-14.37,13.04,0,0-32.33,1.17-39.36-35.14Z"/>
            <path class="cls-11" d="m371.12,257.57c.5,5.58,7.06,8.28,6.7,16.24-.35,7.97,2.23,6.91,2.81,0s-9.52-16.24-9.52-16.24Z"/>
          </g>
        </g>
      </g>
      <g>
        <ellipse class="cls-13" cx="165.2" cy="197.24" rx="14.18" ry="22.64" transform="translate(-66.14 84.65) rotate(-24.1)"/>
        <ellipse class="cls-13" cx="265.32" cy="177.32" rx="14.18" ry="22.64" transform="translate(-6.5 10.13) rotate(-2.16)"/>
        <path class="cls-13" d="m204.63,213.58c5.71,9.27,13.59,14.6,20.88,12.97,7.3-1.64,12.14-9.82,13.35-20.64-7.84,3.71-28.4,7.85-34.23,7.68Z"/>
      </g>
    </g>
  </g>
</svg>