<?xml version="1.0" encoding="UTF-8"?>
<svg id="Layer_2" data-name="Layer 2" xmlns="http://www.w3.org/2000/svg" xmlns:xlink="http://www.w3.org/1999/xlink" viewBox="0 0 338.28 433.71">
  <defs>
    <style>
      .cls-1 {
        fill: url(#linear-gradient);
      }

      .cls-1, .cls-2, .cls-3, .cls-4, .cls-5, .cls-6, .cls-7, .cls-8, .cls-9, .cls-10, .cls-11, .cls-12, .cls-13, .cls-14 {
        stroke-width: 0px;
      }

      .cls-2 {
        fill: url(#linear-gradient-4);
      }

      .cls-3 {
        fill: url(#linear-gradient-2);
      }

      .cls-4 {
        fill: url(#linear-gradient-3);
      }

      .cls-5 {
        fill: url(#linear-gradient-5);
      }

      .cls-6 {
        fill: url(#linear-gradient-6);
      }

      .cls-7 {
        fill: #293d66;
      }

      .cls-8 {
        fill: #5b6972;
      }

      .cls-9 {
        fill: #192a49;
      }

      .cls-10 {
        fill: #434f5b;
      }

      .cls-11 {
        fill: #bc1328;
      }

      .cls-12 {
        fill: #69f8ff;
      }

      .cls-13 {
        fill: #e3f0ff;
      }

      .cls-14 {
        fill: #eb1e2d;
      }
    </style>
    <linearGradient id="linear-gradient" x1="287.55" y1="207.69" x2="271.87" y2="233.52" gradientTransform="translate(-94.18 134.35) rotate(-18.13)" gradientUnits="userSpaceOnUse">
      <stop offset="0" stop-color="#e3f0ff"/>
      <stop offset="1" stop-color="#a4c0dd"/>
    </linearGradient>
    <linearGradient id="linear-gradient-2" x1="273.46" y1="362.49" x2="230.14" y2="408.7" gradientTransform="matrix(1,0,0,1,0,0)" xlink:href="#linear-gradient"/>
    <linearGradient id="linear-gradient-3" x1="203.76" y1="255.92" x2="108.71" y2="412.4" gradientTransform="matrix(1,0,0,1,0,0)" xlink:href="#linear-gradient"/>
    <linearGradient id="linear-gradient-4" x1="173.05" y1="398.47" x2="105.7" y2="385.86" gradientTransform="matrix(1,0,0,1,0,0)" xlink:href="#linear-gradient"/>
    <linearGradient id="linear-gradient-5" x1="158.04" y1="45.71" x2="145.37" y2="270.66" gradientTransform="matrix(1,0,0,1,0,0)" xlink:href="#linear-gradient"/>
    <linearGradient id="linear-gradient-6" x1="82.35" y1="245.54" x2="132.37" y2="251.45" gradientTransform="matrix(1,0,0,1,0,0)" xlink:href="#linear-gradient"/>
  </defs>
  <g id="Layer_1-2" data-name="Layer 1">
    <g>
      <g>
        <g>
          <path class="cls-13" d="m274.07,253.52h0c-1.07,3.31-2.67,6.13-4.9,7.76-8.19,6-30.41,2.04-42.19-6.1-11.78-8.14-14.69-19.56-14.69-19.56,0,0,10.28.72,22.31-.08,5.67-.37,11.74-1.09,17.29-2.38,17.33-4.02,18.26-6.95,21.67-3.44,2.49,2.56,3.37,14.93.5,23.8Z"/>
          <path class="cls-1" d="m274.07,253.52h0c-1.07,3.31-2.67,6.13-4.9,7.76-8.19,6-30.41,2.04-42.19-6.1-11.78-8.14-14.69-19.56-14.69-19.56,0,0,10.28.72,22.31-.08-1.92,2.89-3.5,7.15-1.07,11.79,4.42,8.43,39.36,4.86,39.36,4.86l1.18,1.33Z"/>
          <g>
            <path class="cls-8" d="m265.37,231.01c3.86-3.29,10.71-9.9,17.11-12.87s6.47,4.91,1.36,10.5c-4.68,5.12,12.91.55,17.27,2.73,4.37,2.18,3.59,7.49-3.2,9.24,0,0,6.3,1.02,5.48,5.59-.82,4.57-10.33,3.95-15.05,4.94-4.72.99,2.63,2.71,4.71,4.05,2.08,1.34,2.23,4.89-5.65,5.53-7.89.64-13.63-.03-17.31-2.39-9.02-5.79-13.06-20.22-4.72-27.32Z"/>
            <path class="cls-10" d="m284.14,228.3c-2.74,2.17-3.44,2.44-4.66,5.05-1.22,2.61-2.71,6.48-5.19,7.26-2.47.78,0,2.59,3.19-.25,3.19-2.84,2.77-6.64,3.76-8.48.99-1.84,2.9-3.57,2.9-3.57Z"/>
            <path class="cls-10" d="m297.91,240.61c-5.23.69-12.87-.33-13.42,1.46-.55,1.79,13.42-1.46,13.42-1.46Z"/>
          </g>
        </g>
        <g>
          <g>
            <path class="cls-13" d="m338.28,346.28l-30.65,35.85-15.99,18.7s-2.1-1.63-5.77-4.28c-10.57-7.6-34.22-23.6-58.95-33.53l9.8-19.05,13.83-26.9,45.13,30.92s14.44-14.71,22.51-15.1c4.42-.21,10.03,3.82,14.19,7.52,3.43,3.05,5.89,5.87,5.89,5.87Z"/>
            <path class="cls-3" d="m307.63,382.12l-15.99,18.7s-31.38-24.42-64.72-37.81l9.8-19.05c7.85,9.63,32.52,35.76,70.91,38.15Z"/>
          </g>
          <path class="cls-10" d="m226.92,363.01s19.36-20.8,23.63-45.94l7.52,5.15s-8.63,22.88-31.15,40.8Z"/>
          <path class="cls-11" d="m273.99,351.14c-2.41,4.82-10.9,22.46-13.85,28.59-.67-.4-1.35-.8-2.04-1.21,3.02-6.29,11.38-23.66,13.78-28.44,1.59-3.18.02-5.17-1.64-7.29-1-1.27-1.94-2.46-2.03-3.88-.13-1.95,1.53-5.12,3.09-7.64l1.97,1.35c-1.5,2.45-2.77,4.99-2.69,6.14.04.68.76,1.59,1.52,2.56,1.76,2.23,4.16,5.29,1.9,9.81Z"/>
          <path class="cls-11" d="m338.28,346.28l-30.65,35.85-15.99,18.7s-2.1-1.63-5.77-4.28l46.52-56.14c3.43,3.05,5.89,5.87,5.89,5.87Z"/>
        </g>
        <g>
          <g>
            <path class="cls-4" d="m250.55,317.07c-.7,10.36-5.43,20.57-10.47,28.72h0c-6.33,10.23-13.15,17.23-13.15,17.23l-46.2,11.29c-26.52-4.2-52.25-28.46-52.25-28.46-5.77-24.18-7.94-72.63-7.35-103.54,8.51-5.47,17.12-9.33,25.47-11.99,35.04-11.15,65.51-1.21,65.51-1.21,24.61,34.26,38.46,87.96,38.46,87.96Z"/>
            <path class="cls-13" d="m250.55,317.07c-.7,10.36-5.43,20.57-10.47,28.72h0c-9.69,9.58-35.47,16.44-52.57,12.24-17.11-4.21-21.1-17.46-28.19-48.97-5.73-25.46-10.94-64.63-12.74-78.74,35.04-11.15,65.51-1.21,65.51-1.21,24.61,34.26,38.46,87.96,38.46,87.96Z"/>
          </g>
          <path class="cls-10" d="m161.54,239.55s2.42,5.58,7.62,10.83c3.93,3.97,36.14-.98,36.63-5.42s-4.35-10.86-4.35-10.86l-39.89,5.45Z"/>
          <path class="cls-10" d="m121.65,282.09s16.99-1,18.96-11.23c1.97-10.24,0-38.44,0-38.44,0,0-12.01,3-19.49,9.89,0,0-.31,23.86.54,39.79Z"/>
          <path class="cls-11" d="m240.44,285.67c-2.88,1.22-5.22,2.62-5.55,3.87-.39,1.48-.4,6.19-.41,11.17-.02,7.62-.03,17.09-1.28,22.91-1.02,4.73-5.34,8.29-8.77,10.44-5.98,3.74-13.67,5.95-19.96,5.95-1.75,0-3.39-.17-4.87-.54-10.96-2.67-18.06-12.43-24.32-21.03-5.57-7.65-10.82-14.86-17.67-15.62-12.07-1.33-28.26,7.26-33.91,10.53-.09-.86-.17-1.72-.24-2.6,6.55-3.72,22.16-11.63,34.41-10.28,7.88.87,13.44,8.5,19.31,16.57,6.32,8.68,12.85,17.67,22.98,20.13,6.18,1.5,15.85-.65,23-5.13,4.32-2.71,7.07-5.88,7.73-8.94,1.21-5.57,1.21-14.91,1.23-22.41,0-5.58.02-10,.49-11.78.6-2.23,3.76-4.1,7.01-5.49.28.76.56,1.5.83,2.23Z"/>
        </g>
        <g>
          <path class="cls-13" d="m182.94,433.71h-58.09c-1.42,0-2.16-2.26-2.42-5.32-.32-3.76.08-8.74.84-12.21,1.38-6.3,8.07-8.27,8.07-8.27l-2.89-62.07,52.25,28.46c-.92,22.8,1.61,44.42,2.34,54.09.26,3.39.3,5.32-.11,5.32Z"/>
          <path class="cls-2" d="m149.47,400.91l31.24-26.61-52.25-28.46,2.89,62.07s-6.7,1.97-8.07,8.27c-1.38,6.3-1.58,17.53,1.58,17.53h8.84c-.75-5.87-1.84-15.84-1.16-19.89.26-1.56,1.37-3.02,2.85-4.33,8.8-6.29,27.77-2.26,27.77-2.26,0,0-4.3-5.3-13.68-6.31Z"/>
          <path class="cls-10" d="m180.71,374.3l-52.25-28.46.78,16.68s17.87,7.83,51.48,11.77Z"/>
          <path class="cls-11" d="m180.7,395.14c-2.39.46-4.92.66-7.34.66-5.19,0-9.89-.91-11.73-2.06-1.66-1.05-2.6-3.26-3.51-5.4-.75-1.78-1.53-3.62-2.58-4.4-2.13-1.58-9.95-1.78-13.54-1.07-1.45.29-2.94,2.88-4.02,4.77-1.21,2.1-2.1,3.63-3.49,3.63h-3.92l-.11-2.36h3.87c.38-.32,1.09-1.54,1.61-2.45,1.39-2.4,3.11-5.4,5.62-5.9,3.15-.63,12.2-.88,15.41,1.49,1.57,1.17,2.47,3.31,3.35,5.38.76,1.8,1.54,3.67,2.58,4.32,2.11,1.34,10.6,2.48,17.74,1.02.02.8.05,1.6.07,2.39Z"/>
          <path class="cls-11" d="m182.94,433.71h-58.09c-1.42,0-2.16-2.26-2.42-5.32h60.62c.26,3.39.3,5.32-.11,5.32Z"/>
        </g>
        <g>
          <path class="cls-13" d="m301.48,96.39c-8.59-54.79-34.49-82.87-59.86-90.19C200.66-5.61,107.33-1.71,61.25,28.04,15.17,57.79,1.79,94.4,1.78,110.17c-.02,32.69,18.38,100.13,52.64,122.18,10.69,6.88,33.61,16.84,69.57,14.71,62.77-3.71,145.37-22.39,162.53-41.98,17.28-19.73,23.24-55.92,14.97-108.7Z"/>
          <path class="cls-9" d="m180.58,31.01c-49.97,6.1-88.84,20.87-97.13,35.84-8.29,14.97-2.72,64.06,8.68,95.83,11.4,31.77,27.45,48.7,39.89,52.64s61.21.55,93.63-8.27c40.53-11.03,55.82-19.3,61.46-30.36,2.9-5.69,13.91-41.32,4.98-80.71-8.94-39.38-22.14-56.71-33.41-61.44-11.27-4.73-36.13-8.66-78.09-3.54Z"/>
          <path class="cls-7" d="m177.38,36.89c-48.39,5.9-86.03,20.21-94.06,34.71-8.03,14.49-2.63,62.04,8.4,92.8,11.04,30.77,26.59,47.17,38.63,50.98,12.04,3.81,59.28.53,90.67-8.01,39.25-10.68,54.05-18.69,59.52-29.4,2.81-5.51,13.47-40.02,4.82-78.16-8.65-38.14-21.45-54.92-32.36-59.5-10.91-4.58-34.99-8.39-75.62-3.43Z"/>
          <path class="cls-5" d="m296.87,159.43c-2.01,10.16-4.47,17.2-5.65,19.51-5.88,11.52-21.79,20.13-64,31.61-33.76,9.18-84.56,12.71-97.5,8.61-12.64-4-28.87-20.91-40.68-52.49-13.11-6.92-22.6-15.84-26.58-26.83,0,0,0,0,0,0h0c-.49-1.36-.9-2.76-1.22-4.19-14.3-63.93-3.54-83.75-6.7-82.96-3.15.79-46.87,67.21-51.02,45.83v.02c-1.22,4.56-1.75,8.51-1.75,11.65-.02,16.67,5.72,44.29,15.89,70.28,9.77,24.99,21.01,41.78,37.81,52.59,10.7,6.89,39.24,16.81,68.52,14.02,83.76-7.98,145.73-24,162.53-41.98,10.44-11.18,16.33-28.6,18.11-51.35-2.36,1.99-4.95,3.88-7.76,5.69Z"/>
          <g>
            <path class="cls-14" d="m44.51,153.29c-8.74-26.24-23.35-44.28-29.81-42.13-.93.31-1.63,1.03-2.14,2.1h0s-10.78,15.71-10.78,15.71l24.39,72.15,18.74,3.64v-.02c.8.27,1.57.31,2.27.08,6.45-2.15,6.06-25.3-2.68-51.54Z"/>
            <path class="cls-11" d="m23.08,161.95c6.67,20.04,8.33,37.53,3.7,39.07-4.63,1.54-13.79-13.46-20.46-33.5s-8.33-37.53-3.7-39.07c4.63-1.54,13.79,13.46,20.46,33.5Z"/>
          </g>
          <path class="cls-14" d="m210.12,8.93c-.43,2.69-2.8,4.62-5.53,4.49-4.61-.23-17.16-.53-34.07,1.64-14.52,1.87-29.97,5.78-37.89,7.95-2.21.6-4.47.91-6.72.91-2.42,0-4.83-.35-7.16-1.04-17.26-5.13-35.41-3.43-44.42-2.02,6.83-3.23,14.29-6.06,22.17-8.49,7.6.24,15.98,1.25,24.27,3.72,3.24.96,6.7.99,10,.09,8.1-2.22,23.91-6.22,38.86-8.14,15.78-2.03,27.95-1.97,33.7-1.76.15-1.49.23-3.47.02-5.77,2.43.13,4.8.3,7.14.5.21,3.47-.09,6.29-.35,7.94Z"/>
        </g>
        <g>
          <path class="cls-13" d="m112.84,278.08c-18.51,5.38-37.62.95-37.62.95,0,0-3.6-6.34-2.69-25.5.06-1.2.17-2.36.34-3.48,1.26-8.87,6.61-11.35,6.61-11.35,0,0,11.56,1.05,27.45,6.96,13.9,5.17,18.35,4.31,21.62,7.97.46.52.91,1.13,1.35,1.87,3.54,5.91,1.44,17.19-17.07,22.58Z"/>
          <path class="cls-6" d="m128.55,253.62l-46.96-1.8-8.72-1.78c1.26-8.87,5.31-11.35,5.31-11.35,0,0,12.86,1.05,28.75,6.96,13.9,5.17,18.35,4.31,21.62,7.97Z"/>
          <g>
            <path class="cls-8" d="m80.7,237.96c-4.01-4.48-12.43-14.23-16.89-10.78-4.46,3.45,3,14.92,1.31,15.88-1.7.96-16.81-1.91-21.91-2.66-5.1-.74-8.92,6.05-1.17,12,0,0-5.1,1.59-4.41,6.48s7.06,6.8,15.13,7.86c8.07,1.06,6.16,3.19,4.46,3.19s-11.47-.42-12.43,2.55c-.96,2.97,11.57,9.06,31.8,6.39s12.45-31.56,4.09-40.9Z"/>
            <path class="cls-10" d="m65.15,241.16c1.02,2.43,1.91,11.68,5.25,13.55,3.35,1.87,2.66,4.49-1.18,2.54-3.84-1.95-4.07-16.09-4.07-16.09Z"/>
            <path class="cls-10" d="m42.04,252.4s3.5,1.18,8.57,2.11c5.07.94,8.42,1.38,6.74,2.71-1.67,1.33-15.32-4.82-15.32-4.82Z"/>
          </g>
        </g>
      </g>
      <path class="cls-12" d="m193.09,151.03l29.41-6.04s0,22.48-8.23,30.21c-5.06,4.75-21.18-24.17-21.18-24.17Z"/>
      <path class="cls-12" d="m180.73,133.68s-7.35-12.7-20.74-7.93c-13.39,4.77-8.93,20-8.93,20,0,0,1.58-22.32,29.67-12.08Z"/>
      <path class="cls-12" d="m226.55,128.62s-4.59-13.27,6.55-17.47,19.17,9.24,19.17,9.24c0,0-16.51-15.07-25.72,8.23Z"/>
    </g>
  </g>
</svg>